<?xml version="1.0" encoding="UTF-8"?>
<svg version="1.1" xmlns="http://www.w3.org/2000/svg" width="500" height="500">
<path d="M0 0 C165 0 330 0 500 0 C500 165 500 330 500 500 C335 500 170 500 0 500 C0 335 0 170 0 0 Z " fill="#1B1B1F" transform="translate(0,0)"/>
<path d="M0 0 C6.93025651 4.96340575 12.56077746 11.84729963 16.46484375 19.42578125 C16.46484375 20.08578125 16.46484375 20.74578125 16.46484375 21.42578125 C17.12484375 21.42578125 17.78484375 21.42578125 18.46484375 21.42578125 C18.46484375 12.51578125 18.46484375 3.60578125 18.46484375 -5.57421875 C32.65484375 -5.57421875 46.84484375 -5.57421875 61.46484375 -5.57421875 C61.46484375 65.70578125 61.46484375 136.98578125 61.46484375 210.42578125 C47.27484375 210.42578125 33.08484375 210.42578125 18.46484375 210.42578125 C18.46484375 182.70578125 18.46484375 154.98578125 18.46484375 126.42578125 C16.00972921 128.88089579 14.50939618 130.79239925 12.71484375 133.67578125 C5.30796423 144.82223165 -4.65271288 150.8422498 -17.7109375 153.953125 C-31.35118575 156.2359328 -47.03274044 153.53138632 -58.921875 146.296875 C-73.5910221 135.79385338 -82.55970206 122.82171233 -87.53515625 105.42578125 C-87.92574219 104.20640869 -87.92574219 104.20640869 -88.32421875 102.96240234 C-90.79991298 94.49161602 -90.93151097 86.43152837 -90.81640625 77.68896484 C-90.78511582 75.29769189 -90.77540346 72.90708315 -90.76953125 70.515625 C-90.71593648 59.52213191 -90.5522388 49.09876205 -86.97265625 38.61328125 C-86.7094458 37.83919922 -86.44623535 37.06511719 -86.17504883 36.26757812 C-80.43793807 20.19768666 -69.51913073 5.79791642 -53.99609375 -1.8203125 C-36.89964271 -9.04528329 -16.04879288 -9.96558325 0 0 Z " fill="#3DB17E" transform="translate(259.53515625,229.57421875)"/>
<path d="M0 0 C1.14984375 -0.00322266 2.2996875 -0.00644531 3.484375 -0.00976562 C21.95363861 0.10593022 38.3427919 5.80480259 51.83984375 18.66015625 C70.50729837 38.25943057 71.375 61.10811914 71.375 87.3125 C37.715 87.3125 4.055 87.3125 -30.625 87.3125 C-28.47181041 103.88252271 -28.47181041 103.88252271 -18.625 116.3125 C-9.29888709 122.92978343 -1.03073476 124.2532989 10.375 123.3125 C17.11207486 121.79624836 22.59946472 119.32098822 27.375 114.3125 C28.12904523 113.11051036 28.84927973 111.88668129 29.53515625 110.64453125 C30.14230469 109.54496094 30.74945313 108.44539063 31.375 107.3125 C63.52347162 107.02865721 63.52347162 107.02865721 70.375 109.3125 C67.75865034 124.05919806 59.89526741 134.83284314 47.88671875 143.71875 C28.54657659 155.99056649 3.88258287 158.45814231 -18.375 154.1875 C-29.271937 151.32972486 -38.74619837 146.15918154 -47.625 139.3125 C-48.45257813 138.69246094 -49.28015625 138.07242188 -50.1328125 137.43359375 C-63.50809063 126.04993227 -70.69447463 107.38607908 -72.625 90.3125 C-74.51515653 65.32272805 -70.4236908 42.95871956 -54.86328125 22.8359375 C-40.44828606 6.58447696 -21.43682225 -0.30243824 0 0 Z " fill="#FDFDFD" transform="translate(417.625,52.6875)"/>
<path d="M0 0 C13.86 0 27.72 0 42 0 C42.02578125 6.80238281 42.0515625 13.60476562 42.078125 20.61328125 C42.1033093 24.93818805 42.12965448 29.26302602 42.16015625 33.58789062 C42.2083963 40.44344287 42.25247677 47.29883566 42.27099609 54.15454102 C42.2862069 59.68552187 42.32073118 65.21608389 42.36830902 70.74687767 C42.38307721 72.85060155 42.39103838 74.95438524 42.39188385 77.05816078 C41.77854759 94.26557212 41.77854759 94.26557212 49.01324463 109.20478821 C56.02164148 115.75797622 61.77450729 116.46294773 71.078125 116.2421875 C79.65564529 115.71249999 85.26030744 112.41420189 91 106 C94.2462088 100.98568323 96.10211584 95.94533577 96.15821838 89.95037842 C96.1680072 89.15394928 96.17779602 88.35752014 96.18788147 87.53695679 C96.19363693 86.67236847 96.1993924 85.80778015 96.20532227 84.91699219 C96.21522186 83.99957245 96.22512146 83.08215271 96.23532104 82.13693237 C96.26688842 79.10693943 96.2916747 76.07693081 96.31640625 73.046875 C96.33697988 70.94508458 96.35797647 68.84329826 96.37937927 66.74151611 C96.43455762 61.21121543 96.48398563 55.68087767 96.53222656 50.1505127 C96.59130761 43.51413927 96.6575123 36.87783356 96.72252655 30.24151611 C96.82048277 20.16105213 96.90937536 10.08054458 97 0 C110.86 0 124.72 0 139 0 C139 49.83 139 99.66 139 151 C125.8 151 112.6 151 99 151 C99 142.09 99 133.18 99 124 C96.27279914 126.72720086 94.74245106 128.96770793 92.8125 132.25 C85.84211061 143.30346268 75.71551587 149.3801691 63.109375 152.49609375 C48.1317556 154.92337127 32.60859912 152.78955616 20 144 C8.14713719 134.22560129 2.01948746 121.4857965 0.20347786 106.30937195 C-0.17110549 102.05803825 -0.12977321 97.80976909 -0.11352539 93.54492188 C-0.11367142 92.52938232 -0.11381744 91.51384277 -0.1139679 90.4675293 C-0.11327518 87.1345806 -0.10551296 83.80168885 -0.09765625 80.46875 C-0.09578979 78.1484785 -0.09436696 75.82820661 -0.09336853 73.50793457 C-0.08956131 67.41868999 -0.07974642 61.32946948 -0.06866455 55.24023438 C-0.05841177 49.01953456 -0.05386264 42.79883084 -0.04882812 36.578125 C-0.03812248 24.38540442 -0.02054028 12.19270798 0 0 Z " fill="#FDFDFD" transform="translate(179,54)"/>
<path d="M0 0 C0.7092865 -0.00644531 1.418573 -0.01289063 2.14935303 -0.01953125 C11.1994334 -0.0697499 19.48726636 0.71376488 28.1875 3.4375 C29.98380859 3.98470703 29.98380859 3.98470703 31.81640625 4.54296875 C45.99246872 9.77168953 56.42334738 18.32939238 63.125 32 C65.18920571 36.86265908 65.92880383 41.1773445 66.1875 46.4375 C61.20563247 47.38604758 56.30315278 47.75104852 51.25 48 C50.42330811 48.0424585 49.59661621 48.08491699 48.74487305 48.12866211 C41.22085683 48.48784337 33.71878676 48.53881776 26.1875 48.4375 C25.671875 47.24125 25.15625 46.045 24.625 44.8125 C21.56862645 38.77455925 17.3101557 35.02025992 11 32.5625 C1.50735436 29.8710368 -8.09012623 30.78939292 -16.8125 35.4375 C-20.28456711 38.53755992 -22.64866621 40.9903015 -23.1875 45.75 C-22.73148632 50.23413456 -21.80286683 52.07333732 -18.8125 55.4375 C-10.89661908 60.57440145 -1.87348138 62.05088801 7.25 63.6875 C52.35405126 72.1411506 52.35405126 72.1411506 65.5546875 90.3203125 C71.15390993 99.43437529 71.6235778 110.49373745 69.5 120.76171875 C67.4505965 127.43081929 64.3794581 132.89403629 60.1875 138.4375 C59.259375 139.7678125 59.259375 139.7678125 58.3125 141.125 C45.84061446 154.69734603 26.01798181 160.76119903 8.10375977 161.578125 C-14.06329791 162.22284419 -35.62269235 160.88501145 -53.375 145.9375 C-54.54410079 144.79415033 -55.69093587 143.6275164 -56.8125 142.4375 C-57.42351562 141.83421875 -58.03453125 141.2309375 -58.6640625 140.609375 C-65.99171978 132.93872099 -69.30524508 123.8083137 -70.8125 113.4375 C-64.76977966 112.60329615 -58.77996822 112.14703007 -52.6875 111.875 C-51.77331299 111.8325415 -50.85912598 111.79008301 -49.91723633 111.74633789 C-42.54374959 111.42456926 -35.1931977 111.32585919 -27.8125 111.4375 C-27.35810547 112.45070313 -27.35810547 112.45070313 -26.89453125 113.484375 C-23.02417892 121.72524827 -19.46935613 125.19117895 -10.8125 128.4375 C-0.75635051 130.89188225 10.02025469 130.44350426 19.1875 125.4375 C22.36430083 123.21790116 23.90834245 120.89897187 24.65234375 117.00390625 C24.91816471 112.64055243 24.71835011 110.20059704 22.1875 106.5625 C15.91665836 102.12065384 9.81912162 99.81532272 2.296875 98.4375 C1.47100891 98.27507812 0.64514282 98.11265625 -0.20574951 97.9453125 C-2.82266873 97.43167057 -5.44212912 96.93320659 -8.0625 96.4375 C-49.46522098 88.54098551 -49.46522098 88.54098551 -61.41015625 71.10546875 C-67.67169325 60.38966053 -68.87605829 47.08431676 -65.75 35.0625 C-60.65742217 21.09360662 -50.91636315 12.58790177 -37.87109375 6.23828125 C-25.4920858 0.58258339 -13.3809032 0.06803034 0 0 Z " fill="#3DB07E" transform="translate(419.8125,222.5625)"/>
<path d="M0 0 C14.52 0 29.04 0 44 0 C45.78645066 4.76386843 47.41368447 9.15900788 48.75 14 C50.62161745 20.68023458 52.55150241 27.34177591 54.5 34 C56.6593335 41.38921664 58.8009585 48.78268162 60.90625 56.1875 C62.41985626 61.46349897 63.96099699 66.73136284 65.5 72 C66.1081381 74.0859185 66.71621252 76.17185556 67.32421875 78.2578125 C68.30093938 81.60828672 69.28158646 84.95750784 70.26953125 88.3046875 C72.17464372 94.82630846 73.82761056 101.30503927 75 108 C75.66 108 76.32 108 77 108 C77.26425781 106.73027344 77.52851562 105.46054688 77.80078125 104.15234375 C78.97826018 98.85936439 80.55957702 93.73139305 82.1875 88.5625 C85.21315733 78.81493801 87.94548568 69.01053734 90.5144043 59.13305664 C91.85250772 54.04003412 93.28895172 49.02815913 94.98828125 44.04296875 C97.12526205 37.76824415 98.83203239 31.41291656 100.5 25 C101.0692095 22.81153243 101.64211344 20.62402236 102.21875 18.4375 C102.46560547 17.48746094 102.71246094 16.53742188 102.96679688 15.55859375 C104.48662661 10.3239439 106.27629929 5.17110214 108 0 C122.52 0 137.04 0 152 0 C151.09559828 4.5220086 149.82928151 8.70978404 148.33203125 13.05078125 C148.06129791 13.8435144 147.79056458 14.63624756 147.5116272 15.45300293 C146.6152877 18.07400316 145.71407498 20.69329646 144.8125 23.3125 C144.17380524 25.17468755 143.53521655 27.03691148 142.89672852 28.89916992 C137.36441875 45.01507382 131.74440002 61.09991833 126.09638977 77.17556763 C123.47076158 84.65165173 120.85546562 92.13133093 118.24206734 99.61169624 C116.79832948 103.74385976 115.35395718 107.87580157 113.90967083 112.0077734 C112.71434372 115.42766901 111.51937243 118.84768815 110.32516479 122.26797485 C108.98363466 126.11007123 107.6403087 129.95153756 106.296875 133.79296875 C105.89229568 134.95259125 105.48771637 136.11221375 105.07087708 137.30697632 C104.69525131 138.38025177 104.31962555 139.45352722 103.93261719 140.55932617 C103.60622253 141.49346848 103.27982788 142.42761078 102.94354248 143.39006042 C102.01885611 145.94784199 101.01010695 148.47473262 100 151 C84.16 151 68.32 151 52 151 C50.75347656 147.37 49.50695313 143.74 48.22265625 140 C39.96921218 115.98817955 31.69102262 91.98719869 23.1875 68.0625 C21.81763991 64.20705556 20.44780422 60.35160245 19.078125 56.49609375 C18.74481171 55.55789795 18.41149841 54.61970215 18.06808472 53.65307617 C14.50489631 43.61684639 10.96845635 33.57130093 7.45083618 23.51901245 C6.78040999 21.60432533 6.10885756 19.69003215 5.43612671 17.77615356 C4.51557751 15.15650819 3.59900499 12.53550693 2.68359375 9.9140625 C2.27249359 8.7475692 2.27249359 8.7475692 1.85308838 7.55751038 C0 2.22883882 0 2.22883882 0 0 Z " fill="#FDFDFD" transform="translate(5,54)"/>
<path d="M0 0 C9.08118786 5.16125066 13.67861523 13.37878052 16.80517578 23.22973633 C18.51480283 29.8702797 18.46861683 36.47646283 18.421875 43.296875 C18.43347656 44.99553711 18.43347656 44.99553711 18.4453125 46.72851562 C18.41662834 59.04119274 15.66327672 72.4989908 6.9140625 81.76953125 C-0.84208522 88.29095591 -8.30308044 89.65417241 -18.20703125 89.58203125 C-24.86107168 88.94318594 -29.56062409 86.09876463 -34.640625 81.921875 C-47.06600103 66.65641302 -48.00803158 49.21254545 -46.828125 30.234375 C-45.43343415 19.36939311 -40.36310318 9.21753897 -31.828125 2.234375 C-22.18106953 -4.4244912 -10.59550405 -5.05537121 0 0 Z " fill="#1B1B1F" transform="translate(259.828125,259.765625)"/>
<path d="M0 0 C6.99666803 3.8508793 12.77803754 9.02491499 15.9375 16.4375 C16.5975 20.3975 17.2575 24.3575 17.9375 28.4375 C-2.8525 28.4375 -23.6425 28.4375 -45.0625 28.4375 C-45.0625 19.55202533 -42.09777665 12.57554033 -35.953125 6.04296875 C-26.11417268 -2.31200935 -12.16918163 -4.82135397 0 0 Z " fill="#1C1C20" transform="translate(432.0625,85.5625)"/>
</svg>
