<?xml version="1.0" encoding="UTF-8"?>
<svg version="1.1" xmlns="http://www.w3.org/2000/svg" width="2240" height="1260">
<path d="M0 0 C739.2 0 1478.4 0 2240 0 C2240 415.8 2240 831.6 2240 1260 C1500.8 1260 761.6 1260 0 1260 C0 844.2 0 428.4 0 0 Z " fill="#1B1B1F" transform="translate(0,0)"/>
<path d="M0 0 C0.88099365 0.00821777 1.7619873 0.01643555 2.66967773 0.02490234 C16.24192797 0.25879825 26.31779063 3.41021715 36.375 13 C40.28496523 17.09645006 43.23263277 21.33446252 45.90625 26.31640625 C46.91791876 28.40192989 46.91791876 28.40192989 49.0625 29.25 C49.0625 20.34 49.0625 11.43 49.0625 2.25 C63.5825 2.25 78.1025 2.25 93.0625 2.25 C93.0625 75.51 93.0625 148.77 93.0625 224.25 C78.2125 224.25 63.3625 224.25 48.0625 224.25 C48.0625 195.87 48.0625 167.49 48.0625 138.25 C47.4025 138.25 46.7425 138.25 46.0625 138.25 C45.8046875 139.13816406 45.546875 140.02632812 45.28125 140.94140625 C41.94288783 150.00420356 34.35222909 156.66626745 26.0625 161.25 C10.14283577 168.2683466 -7.67998322 168.43324987 -23.9375 162.25 C-40.96267222 154.42698092 -52.24109869 139.25498757 -58.9375 122.25 C-63.50282172 109.72995103 -64.1241405 97.97142885 -64.12280273 84.79443359 C-64.12498863 82.38751513 -64.14319465 79.98105648 -64.16210938 77.57421875 C-64.24544222 55.3625021 -58.87436319 34.98506939 -43.171875 18.4921875 C-42.06585938 17.38230469 -42.06585938 17.38230469 -40.9375 16.25 C-40.32390625 15.61320313 -39.7103125 14.97640625 -39.078125 14.3203125 C-28.35176919 4.00650883 -14.56626923 -0.1650331 0 0 Z " fill="#3DB17E" transform="translate(515.9375,656.75)"/>
<path d="M0 0 C14.55931542 12.34983464 22.77464915 29.53054487 24.9375 48.25 C25.02177246 48.96639648 25.10604492 49.68279297 25.19287109 50.42089844 C26.05337444 59.08566317 25.75 67.42828284 25.75 76.25 C-9.23 76.25 -44.21 76.25 -80.25 76.25 C-78.04782772 92.84122203 -78.04782772 92.84122203 -68.25 105.25 C-67.486875 105.95125 -66.72375 106.6525 -65.9375 107.375 C-59.27208974 112.02528623 -52.7897614 112.80701251 -44.875 112.75 C-43.48063721 112.74033203 -43.48063721 112.74033203 -42.05810547 112.73046875 C-33.81466681 112.51014122 -28.20114382 111.01788112 -22.14453125 105.2421875 C-19.43845368 102.31465448 -17.51908756 100.05726268 -16.25 96.25 C-2.45634556 95.96329587 11.03451966 96.78431274 24.75 98.25 C21.1410173 114.61705314 13.12759786 126.13026891 -0.85546875 135.20703125 C-20.75822466 147.18532969 -45.81423769 148.70458133 -68.25 144.25 C-86.91305175 139.29133771 -101.93694607 128.63999324 -112.25 112.25 C-120.53458177 97.91635853 -123.65030334 82.44594768 -123.5625 66 C-123.55758545 64.90461914 -123.5526709 63.80923828 -123.54760742 62.68066406 C-123.22749658 40.45348062 -115.75210531 19.92526713 -100.05078125 3.9375 C-93.63303544 -2.22067171 -86.94403744 -6.10968826 -78.8125 -9.5625 C-78.13300293 -9.85294189 -77.45350586 -10.14338379 -76.75341797 -10.44262695 C-51.99485255 -20.37126312 -21.16639564 -15.93893733 0 0 Z " fill="#FDFDFD" transform="translate(757.25,495.75)"/>
<path d="M0 0 C14.52 0 29.04 0 44 0 C44.02578125 7.10273438 44.0515625 14.20546875 44.078125 21.5234375 C44.10330476 26.03519187 44.12964646 30.54687996 44.16015625 35.05859375 C44.2084249 42.21273004 44.25249469 49.36671282 44.27099609 56.52099609 C44.28618983 62.2918672 44.32068429 68.06233551 44.36830902 73.83302689 C44.38309469 76.0296846 44.39103939 78.22639983 44.39188385 80.42310715 C44.39426367 83.5108562 44.42142588 86.59750121 44.45410156 89.68505859 C44.4490712 90.58417969 44.44404083 91.48330078 44.43885803 92.40966797 C44.56352111 100.07218325 46.43833393 106.8990358 51.375 112.875 C59.88477867 119.76386844 66.14590891 120.88783464 77 120 C84.40763525 118.20948043 90.82449926 114.46312757 95.28125 108.19921875 C97.96618433 103.72113185 99.11239806 99.91861827 99.15821838 94.76055908 C99.1680072 93.92205917 99.17779602 93.08355927 99.18788147 92.21965027 C99.19363693 91.30830826 99.1993924 90.39696625 99.20532227 89.45800781 C99.21522186 88.49182022 99.22512146 87.52563263 99.23532104 86.53016663 C99.26689842 83.33784431 99.29167869 80.14550712 99.31640625 76.953125 C99.33697902 74.73923354 99.35797558 72.52534598 99.37937927 70.3114624 C99.43456656 64.48524128 99.48399063 58.6589849 99.53222656 52.83270264 C99.5912994 45.8417424 99.65750902 38.85084657 99.72252655 31.85993958 C99.82049401 21.23999906 99.90937894 10.62001719 100 0 C114.52 0 129.04 0 144 0 C144 51.48 144 102.96 144 156 C130.14 156 116.28 156 102 156 C102 146.76 102 137.52 102 128 C101.34 128 100.68 128 100 128 C99.7215625 129.2065625 99.7215625 129.2065625 99.4375 130.4375 C95.52121129 140.14308505 86.85656574 148.81021476 77.296875 153.08984375 C76.15992188 153.54037109 76.15992188 153.54037109 75 154 C74.07703125 154.37253906 73.1540625 154.74507812 72.203125 155.12890625 C58.53441683 160.00815904 43.40689073 159.62840154 30.1015625 153.7109375 C15.96956646 146.47070939 8.69611375 136.19469777 3.04296875 121.53125 C0.53297732 113.03300187 -0.29312343 104.75923106 -0.22705078 95.92895508 C-0.22734283 94.88371674 -0.22763489 93.83847839 -0.22793579 92.76156616 C-0.22655565 89.34746654 -0.21105699 85.93359219 -0.1953125 82.51953125 C-0.19157769 80.13628763 -0.18873293 77.75304246 -0.18673706 75.36979675 C-0.17913751 69.12767218 -0.15952088 62.88564216 -0.1373291 56.64355469 C-0.11679112 50.26173176 -0.1077184 43.8798934 -0.09765625 37.49804688 C-0.07627128 24.9986499 -0.0411194 12.49934764 0 0 Z " fill="#FBFBFC" transform="translate(462,483)"/>
<path d="M0 0 C2.14336693 0.02369846 4.28548895 0.02051882 6.42895508 0.01391602 C26.57297531 0.05217819 43.80886359 4.43338037 58.8215332 18.42602539 C66.89524259 26.8501033 71.8038764 36.66058554 71.5793457 48.33618164 C58.34653194 51.32423636 44.06090693 50.46049932 30.5793457 50.33618164 C30.15975586 49.34038086 30.15975586 49.34038086 29.73168945 48.32446289 C27.00681013 42.32271904 24.52938501 38.36162535 18.5793457 35.33618164 C17.88196289 34.97395508 17.18458008 34.61172852 16.46606445 34.23852539 C7.93468864 31.57174892 -4.39000579 31.70525252 -12.4831543 35.52368164 C-15.84615711 37.64705908 -18.15599041 39.45185683 -19.4206543 43.33618164 C-19.95814025 47.2171464 -19.79138589 50.33984048 -18.4206543 54.02368164 C-11.43039892 62.10616442 -1.38210348 63.27493084 8.5793457 65.33618164 C58.45121114 75.90505379 58.45121114 75.90505379 71.0793457 94.02368164 C76.82125337 102.88691702 76.63289337 113.13987524 75.5793457 123.33618164 C72.47873494 136.45722118 64.24663347 146.3793602 53.5793457 154.33618164 C51.06443514 155.85987009 48.47284061 157.17594305 45.8293457 158.46118164 C44.76937378 158.98156006 44.76937378 158.98156006 43.68798828 159.51245117 C31.17434101 165.52827017 18.29171816 167.72311091 4.4543457 167.64868164 C3.36412109 167.64376709 2.27389648 167.63885254 1.15063477 167.63378906 C-20.32645061 167.32521025 -40.09009284 161.79529573 -56.0925293 146.82446289 C-64.15534035 138.20699537 -67.89147262 128.84674914 -69.4206543 117.33618164 C-54.71862268 115.98211823 -40.18754118 115.0193712 -25.4206543 115.33618164 C-25.0803418 116.07223633 -24.7400293 116.80829102 -24.3894043 117.56665039 C-20.34718464 125.70484262 -16.75600152 129.52769844 -8.18237305 132.43383789 C2.02724293 134.8828735 14.36281414 134.75378443 23.5793457 129.33618164 C26.97107811 126.35510742 29.37546868 123.13029942 29.8918457 118.58618164 C29.48807354 114.38695109 28.3010791 112.54643128 25.5793457 109.33618164 C20.25862116 105.80941787 15.27851129 104.24668262 9.0793457 102.89868164 C8.17514893 102.69186768 7.27095215 102.48505371 6.33935547 102.27197266 C0.40502415 100.92527141 -5.54842785 99.66949903 -11.50146484 98.40869141 C-28.82313198 94.71969966 -47.45442753 90.43562402 -58.5456543 75.33618164 C-65.53520743 64.18968374 -67.11890516 51.71901768 -64.7956543 38.88305664 C-61.24272812 25.49613835 -53.0852573 16.48545445 -41.4206543 9.33618164 C-28.1221499 2.40640227 -14.91282711 -0.17576624 0 0 Z " fill="#3DB07E" transform="translate(707.420654296875,656.663818359375)"/>
<path d="M0 0 C14.85 0 29.7 0 45 0 C47.70883159 7.44928688 50.20668356 14.7758014 52.375 22.375 C52.67390137 23.41084229 52.97280273 24.44668457 53.28076172 25.51391602 C54.19155901 28.67470567 55.09672797 31.83705239 56 35 C56.27134766 35.94891113 56.54269531 36.89782227 56.82226562 37.87548828 C57.84052599 41.43750453 58.85788781 44.99977314 59.87280273 48.56274414 C61.37140316 53.81958077 62.89113734 59.06952201 64.4375 64.3125 C64.73140625 65.31168457 64.73140625 65.31168457 65.03125 66.33105469 C65.96520851 69.50324178 66.90270788 72.67427559 67.84912109 75.84277344 C74.80846842 99.14485775 74.80846842 99.14485775 77 111 C79.14897235 110.19734565 79.14897235 110.19734565 79.75854492 108.18774414 C79.99677979 107.39489014 80.23501465 106.60203613 80.48046875 105.78515625 C80.75383057 104.88442383 81.02719238 103.98369141 81.30883789 103.05566406 C81.59879639 102.06791992 81.88875488 101.08017578 82.1875 100.0625 C82.49357178 99.03995117 82.79964355 98.01740234 83.11499023 96.96386719 C85.72293613 88.15830084 88.09640146 79.29405306 90.4440918 70.41625977 C92.34113974 63.29264031 94.4422101 56.27412489 96.72851562 49.26733398 C99.23436848 41.4847333 101.31773587 33.5945435 103.37695312 25.68359375 C105.65567376 17.00587585 108.31338488 8.59716839 111 0 C126.18 0 141.36 0 157 0 C147.36946115 29.28204382 137.2382564 58.37766578 127.04115295 87.4654541 C124.16061314 95.68271196 121.28685755 103.90230274 118.421875 112.125 C118.07574661 113.11833847 117.72961823 114.11167694 117.3730011 115.13511658 C116.09160503 118.813109 114.81047841 122.49119503 113.52987671 126.16946411 C112.68576609 128.59361366 111.84098754 131.01752957 110.99609375 133.44140625 C110.76367981 134.10958374 110.53126587 134.77776123 110.29180908 135.46618652 C107.90003628 142.3251595 105.44342368 149.15841368 103 156 C86.83 156 70.66 156 54 156 C47.37600281 137.51221592 40.8287677 119.00132069 34.3687706 100.45561981 C32.4708855 95.00764993 30.57131525 89.56026717 28.67162514 84.11292648 C28.18211802 82.70925805 27.6926555 81.30557406 27.20323753 79.90187454 C23.71106736 69.88689016 20.20431667 59.87711594 16.68601036 49.87128448 C15.94467721 47.76260267 15.20379219 45.65376401 14.46308899 43.54486084 C14.2227679 42.86063427 13.9824468 42.1764077 13.73484325 41.47144699 C13.25590228 40.10778843 12.7769802 38.74412323 12.29807758 37.3804512 C10.90457778 33.41333448 9.50816451 29.44725811 8.10970879 25.48188591 C7.0431841 22.45498701 5.98094051 19.42658557 4.91796875 16.3984375 C4.53362671 15.31182831 4.14928467 14.22521912 3.7532959 13.10568237 C3.40311401 12.10578278 3.05293213 11.10588318 2.69213867 10.07568359 C2.38765305 9.210914 2.08316742 8.34614441 1.76945496 7.45516968 C1 5 1 5 0 0 Z " fill="#FDFDFD" transform="translate(283,483)"/>
<path d="M0 0 C9.68915139 6.37214461 15.36333004 16.08532084 18.1640625 27.2109375 C21.71155339 44.63863184 19.81087631 64.23389729 10.6953125 79.625 C6.33942842 85.72725235 0.55764772 90.71189413 -7 92 C-16.78399141 92.86472218 -25.83400984 93.25953332 -34 87 C-39.28374706 82.37378591 -42.18807838 76.33701176 -45 70 C-45.35191406 69.23300781 -45.70382812 68.46601562 -46.06640625 67.67578125 C-51.80453504 51.2296799 -50.09228577 29.65998112 -42.6484375 14.19140625 C-38.07875764 5.96842618 -32.55445011 0.90797512 -23.671875 -2.30859375 C-15.80480245 -4.3443713 -7.30641162 -3.57253565 0 0 Z " fill="#1B1B1F" transform="translate(546,695)"/>
<path d="M0 0 C32 0 32 0 42 4 C47.30083588 9.30083588 49.29921247 13.2987424 49.4375 20.75 C49.35094268 27.14858344 48.35527558 31.27247865 44 36 C40.71875 39 40.71875 39 38 39 C38.39380859 39.71655762 38.78761719 40.43311523 39.19335938 41.17138672 C40.96657396 44.4035687 42.73335978 47.63922031 44.5 50.875 C45.43005859 52.56689453 45.43005859 52.56689453 46.37890625 54.29296875 C46.96542969 55.36933594 47.55195312 56.44570313 48.15625 57.5546875 C48.70087891 58.54968262 49.24550781 59.54467773 49.80664062 60.56982422 C51 63 51 63 51 65 C46.05 65 41.1 65 36 65 C35.24976563 63.42347656 34.49953125 61.84695313 33.7265625 60.22265625 C32.69468293 58.16827784 31.66071893 56.11494547 30.625 54.0625 C30.13644531 53.02158203 29.64789062 51.98066406 29.14453125 50.90820312 C28.63535156 49.91884766 28.12617187 48.92949219 27.6015625 47.91015625 C27.15119629 46.99371338 26.70083008 46.07727051 26.23681641 45.13305664 C23.30041301 41.89531746 23.30041301 41.89531746 14 42 C14 49.59 14 57.18 14 65 C9.38 65 4.76 65 0 65 C0 43.55 0 22.1 0 0 Z " fill="#FAFAFA" transform="translate(1919,557)"/>
<path d="M0 0 C4.62 0 9.24 0 14 0 C14.33 1.98 14.66 3.96 15 6 C15.37769531 5.566875 15.75539063 5.13375 16.14453125 4.6875 C19.70776147 1.08254577 22.29941296 -0.46756558 27.4375 -0.625 C33.45460768 -0.2535736 38.30931631 1.16517254 42.53125 5.61328125 C48.44822504 13.37071074 48.66969952 21.53916551 48 31 C46.84866692 37.59839631 43.96078815 42.51340483 39 47 C34.23246531 50.28430167 29.63808875 50.90052806 24 50 C20.00442859 48.4562565 17.41137881 46.61706822 15 43 C14.67 50.92 14.34 58.84 14 67 C9.38 67 4.76 67 0 67 C0 44.89 0 22.78 0 0 Z " fill="#3CAD7B" transform="translate(1091,573)"/>
<path d="M0 0 C4.62 0 9.24 0 14 0 C14.33 1.98 14.66 3.96 15 6 C15.78375 5.195625 16.5675 4.39125 17.375 3.5625 C20.88354457 0.13749221 22.46780863 -0.17160342 27.25 -0.25 C32.82252088 -0.17008119 36.39998659 0.57929786 40.5859375 4.4765625 C47.12374462 11.46085401 48.5926356 18.28945341 48.3515625 27.74609375 C47.5283872 35.36503847 44.45946082 41.67052634 39 47 C34.00930825 50.48187797 28.9069608 50.89179765 23 50 C19.76060344 48.26460898 17.57678866 46.57678866 15 44 C14.67 51.59 14.34 59.18 14 67 C9.38 67 4.76 67 0 67 C0 44.89 0 22.78 0 0 Z " fill="#F8F8F8" transform="translate(1319,698)"/>
<path d="M0 0 C2.71391952 1.70950323 4.1883276 3.52077265 5.96875 6.19140625 C6.29875 3.88140625 6.62875 1.57140625 6.96875 -0.80859375 C11.25875 -0.80859375 15.54875 -0.80859375 19.96875 -0.80859375 C19.96875 21.30140625 19.96875 43.41140625 19.96875 66.19140625 C15.67875 66.19140625 11.38875 66.19140625 6.96875 66.19140625 C6.63875 58.27140625 6.30875 50.35140625 5.96875 42.19140625 C4.31875 43.84140625 2.66875 45.49140625 0.96875 47.19140625 C-3.15764009 49.53341144 -7.38214192 49.75187185 -12.03125 49.19140625 C-17.79531465 47.30926269 -21.67978585 43.12358674 -25.03125 38.19140625 C-28.36998188 30.3936371 -28.39215695 20.24891627 -26.19140625 12.0703125 C-21.37472236 1.4152239 -11.65192974 -4.63836434 0 0 Z " fill="#FBFBFB" transform="translate(1067.03125,698.80859375)"/>
<path d="M0 0 C4.29 0 8.58 0 13 0 C13.33 2.31 13.66 4.62 14 7 C14.598125 6.21625 15.19625 5.4325 15.8125 4.625 C18.19896412 1.76124305 19.75166637 0.14879519 23.5234375 -0.30078125 C30.53329444 -0.32958888 34.12645487 0.28178163 39.3125 5.1875 C39.869375 5.785625 40.42625 6.38375 41 7 C41.43828125 6.4946875 41.8765625 5.989375 42.328125 5.46875 C46.37539177 1.3227694 49.23307951 -0.53322278 55.125 -0.6875 C60.12933302 -0.36606299 63.27289492 0.45925017 67 4 C71.22061032 9.10514042 71.54962739 12.78555702 71.390625 19.1171875 C71.38496521 19.97434357 71.37930542 20.83149963 71.37347412 21.71463013 C71.35119639 24.4353368 71.30101774 27.15469568 71.25 29.875 C71.2299238 31.72654339 71.211675 33.57810756 71.1953125 35.4296875 C71.15136001 39.9536393 71.08239359 44.47659164 71 49 C66.38 49 61.76 49 57 49 C56.98541748 47.95021973 56.97083496 46.90043945 56.95581055 45.81884766 C56.89792007 41.93096526 56.82068794 38.04366774 56.73754883 34.15625 C56.70425565 32.47242715 56.67623744 30.78849152 56.65356445 29.10449219 C56.62009795 26.68635914 56.56778964 24.26926376 56.51171875 21.8515625 C56.50532883 21.0963028 56.4989389 20.34104309 56.49235535 19.56289673 C56.46019682 17.21354099 56.46019682 17.21354099 56 14 C52.29584707 11.53056471 50.37855495 11.53086911 46 12 C43.37997319 14.40425097 43.00889901 15.92830545 42.56762695 19.48339844 C42.52641415 20.85836074 42.50081635 22.2338523 42.48828125 23.609375 C42.47033005 24.33618469 42.45237885 25.06299438 42.43388367 25.81182861 C42.37986759 28.12449407 42.3459144 30.43695421 42.3125 32.75 C42.27931907 34.3216431 42.24482868 35.89325914 42.20898438 37.46484375 C42.12414672 41.30974746 42.05729494 45.15459122 42 49 C37.71 49 33.42 49 29 49 C28.98541748 47.98574951 28.97083496 46.97149902 28.95581055 45.92651367 C28.89783747 42.16345971 28.82060541 38.40100479 28.73754883 34.63842773 C28.70429464 33.00994591 28.67626416 31.38134869 28.65356445 29.75268555 C28.62002643 27.41144639 28.56771415 25.07126514 28.51171875 22.73046875 C28.50532883 22.00224411 28.4989389 21.27401947 28.49235535 20.52372742 C28.40757481 17.60916197 28.33518805 15.50019604 26.68676758 13.0402832 C23.80735363 11.26445706 21.27201328 11.64942715 18 12 C16.1624525 12.97228778 16.1624525 12.97228778 15 15 C14.66911188 17.64916014 14.51156506 20.07693956 14.48828125 22.73046875 C14.47033005 23.48088943 14.45237885 24.23131012 14.43388367 25.00447083 C14.37974813 27.3987569 14.34587584 29.79284331 14.3125 32.1875 C14.27932964 33.81187677 14.24484024 35.43622717 14.20898438 37.06054688 C14.1240203 41.04022056 14.05722535 45.0198347 14 49 C9.38 49 4.76 49 0 49 C0 32.83 0 16.66 0 0 Z " fill="#FAFAFA" transform="translate(1516,698)"/>
<path d="M0 0 C5.78938892 3.586904 9.88488803 8.80474117 11.96484375 15.28125 C14.03767123 24.73745471 11.49305915 33.03151074 6.8125 41.3125 C0.12604674 47.29511608 -6.6023923 49.25565634 -15.515625 48.84765625 C-23.09712442 47.82706979 -27.24295791 44.23687133 -32.1171875 38.53515625 C-36.94990996 31.52117798 -36.52675173 22.63263315 -35.5625 14.4375 C-33.53359788 7.42599175 -28.74585096 3.05954659 -22.5625 -0.5625 C-16.01003454 -2.74665515 -6.38779409 -2.9080619 0 0 Z " fill="#F9F9F9" transform="translate(1735.5625,699.5625)"/>
<path d="M0 0 C4.62 0 9.24 0 14 0 C14.0093457 1.36729248 14.01869141 2.73458496 14.02832031 4.14331055 C14.06822903 9.222091 14.133991 14.30026626 14.20751953 19.37866211 C14.2357239 21.57552306 14.25694107 23.77248539 14.27099609 25.96948242 C14.29243249 29.1299223 14.3390878 32.28914396 14.390625 35.44921875 C14.39185364 36.42960617 14.39308228 37.40999359 14.39434814 38.42008972 C14.48790366 42.78778942 14.57797305 45.3168183 16.91308594 49.09692383 C20.25319805 52.14280286 22.36192938 52.18414692 26.8125 52.25 C27.85019531 52.27578125 28.88789062 52.3015625 29.95703125 52.328125 C33.44960798 51.95151852 35.23421061 51.14312477 38 49 C39.79851252 46.07437258 40.26138345 43.8245822 40.31884766 40.41503906 C40.33871735 39.51440735 40.35858704 38.61377563 40.37905884 37.68585205 C40.39638565 36.24033966 40.39638565 36.24033966 40.4140625 34.765625 C40.43342865 33.77246277 40.4527948 32.77930054 40.4727478 31.75604248 C40.53247322 28.58744871 40.57890111 25.41881847 40.625 22.25 C40.66318623 20.10024467 40.70223834 17.95050454 40.7421875 15.80078125 C40.83816912 10.53397773 40.92222646 5.26710259 41 0 C45.29 0 49.58 0 54 0 C54.12399459 6.97421857 54.21452836 13.94778942 54.2746582 20.92285156 C54.29973575 23.29340804 54.33380632 25.6638877 54.37719727 28.03417969 C54.43814397 31.45006305 54.4662785 34.86492036 54.48828125 38.28125 C54.51408768 39.33364868 54.5398941 40.38604736 54.56648254 41.47033691 C54.56905867 48.29466322 53.42034648 52.7244359 49 58 C42.39982065 64.60017935 36.13104039 66.29441696 27.0625 66.4375 C20.61620378 66.40263912 15.47002543 65.50081627 10 62 C8.6078125 61.13375 8.6078125 61.13375 7.1875 60.25 C2.50170877 55.43032903 -0.13148671 49.04454159 -0.11352539 42.3449707 C-0.11344986 41.40422195 -0.11337433 40.46347321 -0.11329651 39.49421692 C-0.10813522 38.48163315 -0.10297394 37.46904938 -0.09765625 36.42578125 C-0.0962413 35.38681198 -0.09482635 34.34784271 -0.09336853 33.27738953 C-0.08776656 29.95573052 -0.07521372 26.63413867 -0.0625 23.3125 C-0.05748525 21.06184993 -0.0529223 18.81119881 -0.04882812 16.56054688 C-0.03779648 11.04033867 -0.02053051 5.52018072 0 0 Z " fill="#FAFAFA" transform="translate(1854,557)"/>
<path d="M0 0 C4.95 0 9.9 0 15 0 C16.35238898 4.03393889 17.70375093 8.068196 19.05273438 12.10327148 C19.50985465 13.46967057 19.96751771 14.83588822 20.42578125 16.2019043 C23.11129943 24.20839983 25.72055212 32.22128958 28.11425781 40.3215332 C28.89980493 42.69701208 29.8113634 44.8041606 31 47 C31.30292969 46.00742187 31.60585937 45.01484375 31.91796875 43.9921875 C33.97793987 37.29478945 36.08678964 30.64328634 38.5 24.0625 C41.38418744 16.14242973 43.6761259 8.10036114 46 0 C51.28 0 56.56 0 62 0 C54.79917183 21.71383753 47.51294562 43.39197056 40 65 C34.06 65 28.12 65 22 65 C18.99972021 57.65388863 16.27027289 50.25076041 13.671875 42.75390625 C13.27800598 41.62097641 12.88413696 40.48804657 12.47833252 39.32078552 C11.65357439 36.94549235 10.83008518 34.56975824 10.0078125 32.19360352 C8.74469746 28.54719242 7.47407079 24.90345361 6.203125 21.25976562 C5.40058322 18.94547143 4.59848398 16.63102371 3.796875 14.31640625 C3.22510529 12.68053307 3.22510529 12.68053307 2.64178467 11.01161194 C2.2943219 10.00303635 1.94685913 8.99446075 1.58886719 7.95532227 C1.28116394 7.06837173 0.97346069 6.1814212 0.65643311 5.26759338 C0 3 0 3 0 0 Z " fill="#FBFBFB" transform="translate(1813,682)"/>
<path d="M0 0 C4.16978206 2.96696031 6.62620675 5.44112025 8.25 10.3125 C8.33518867 13.11676452 8.3658852 15.8954635 8.34765625 18.69921875 C8.3462413 19.51622757 8.34482635 20.33323639 8.34336853 21.17500305 C8.33777294 23.78337268 8.32522129 26.39165634 8.3125 29 C8.30748443 30.76887897 8.30292162 32.53775928 8.29882812 34.30664062 C8.28780496 38.64196019 8.27054338 42.97721552 8.25 47.3125 C3.96 47.3125 -0.33 47.3125 -4.75 47.3125 C-5.245 44.8375 -5.245 44.8375 -5.75 42.3125 C-6.69875 43.116875 -7.6475 43.92125 -8.625 44.75 C-13.69647293 49.04972705 -18.23591445 48.81925347 -24.75 48.3125 C-29.50852474 46.668646 -31.94569483 44.46702617 -34.75 40.3125 C-36.11002222 36.23243333 -36.39114786 32.57467608 -35.75 28.3125 C-32.46781677 23.09962076 -28.60710736 20.23362616 -22.57861328 18.79394531 C-20.18241606 18.35519797 -17.78545655 17.97676519 -15.375 17.625 C-14.54355469 17.49544922 -13.71210937 17.36589844 -12.85546875 17.23242188 C-10.82168071 16.91683408 -8.78601001 16.61341972 -6.75 16.3125 C-6.75 14.0025 -6.75 11.6925 -6.75 9.3125 C-8.51949095 9.20434775 -10.29087487 9.12683917 -12.0625 9.0625 C-13.54169922 8.99289062 -13.54169922 8.99289062 -15.05078125 8.921875 C-15.94152344 9.05078125 -16.83226562 9.1796875 -17.75 9.3125 C-18.224375 9.9725 -18.69875 10.6325 -19.1875 11.3125 C-20.75 13.3125 -20.75 13.3125 -23.88671875 13.703125 C-25.05847656 13.65671875 -26.23023438 13.6103125 -27.4375 13.5625 C-29.20673828 13.50835938 -29.20673828 13.50835938 -31.01171875 13.453125 C-31.91535156 13.40671875 -32.81898437 13.3603125 -33.75 13.3125 C-33.05357035 8.40368516 -32.3710085 5.84066213 -28.75 2.3125 C-21.01761413 -3.18938995 -8.71929102 -4.01546297 0 0 Z " fill="#F7F7F7" transform="translate(1497.75,699.6875)"/>
<path d="M0 0 C4.16978206 2.96696031 6.62620675 5.44112025 8.25 10.3125 C8.33518867 13.11676452 8.3658852 15.8954635 8.34765625 18.69921875 C8.3462413 19.51622757 8.34482635 20.33323639 8.34336853 21.17500305 C8.33777294 23.78337268 8.32522129 26.39165634 8.3125 29 C8.30748443 30.76887897 8.30292162 32.53775928 8.29882812 34.30664062 C8.28780496 38.64196019 8.27054338 42.97721552 8.25 47.3125 C3.96 47.3125 -0.33 47.3125 -4.75 47.3125 C-5.245 44.8375 -5.245 44.8375 -5.75 42.3125 C-6.678125 43.116875 -7.60625 43.92125 -8.5625 44.75 C-12.79935849 48.42194403 -16.7342301 48.65326334 -22.17578125 48.59765625 C-27.03400215 48.05949217 -30.33060107 45.87383882 -33.625 42.25 C-36.01844092 38.12796287 -36.36842822 33.96838099 -35.75 29.3125 C-33.27643749 24.16748999 -29.88737673 21.5634031 -24.75 19.3125 C-21.63194472 18.48227855 -18.50671584 18.00006381 -15.3125 17.5625 C-14.48556641 17.43746094 -13.65863281 17.31242188 -12.80664062 17.18359375 C-10.78963813 16.88046043 -8.77004257 16.59466468 -6.75 16.3125 C-6.75 14.0025 -6.75 11.6925 -6.75 9.3125 C-8.51949095 9.20434775 -10.29087487 9.12683917 -12.0625 9.0625 C-13.54169922 8.99289062 -13.54169922 8.99289062 -15.05078125 8.921875 C-17.88781166 9.01666469 -17.88781166 9.01666469 -19.328125 11.30859375 C-19.79734375 11.96988281 -20.2665625 12.63117187 -20.75 13.3125 C-22.87109375 13.73828125 -22.87109375 13.73828125 -25.1875 13.625 C-25.94933594 13.60050781 -26.71117187 13.57601562 -27.49609375 13.55078125 C-29.66341783 13.3216534 -31.65403 12.89975355 -33.75 12.3125 C-33.33311525 7.44884454 -31.33780535 5.48311868 -27.75 2.3125 C-20.9040055 -3.32537782 -8.01960865 -3.77393348 0 0 Z " fill="#3CAD7C" transform="translate(1326.75,574.6875)"/>
<path d="M0 0 C3.74876715 2.66739201 6.19631145 5.2051229 8.25 9.3125 C8.33691001 12.15679357 8.36553802 14.97629176 8.34765625 17.8203125 C8.3462413 18.66093231 8.34482635 19.50155212 8.34336853 20.36764526 C8.33776237 23.05763275 8.32520886 25.74753759 8.3125 28.4375 C8.30748579 30.25911338 8.30292275 32.08072807 8.29882812 33.90234375 C8.28779094 38.37242777 8.2705222 42.84244986 8.25 47.3125 C3.96 47.3125 -0.33 47.3125 -4.75 47.3125 C-5.245 44.8375 -5.245 44.8375 -5.75 42.3125 C-6.69875 43.116875 -7.6475 43.92125 -8.625 44.75 C-13.02599888 48.48128166 -16.19134849 48.65019405 -21.91796875 48.59765625 C-26.96576507 48.08939538 -30.1950649 46.02292861 -33.625 42.25 C-36.01433217 38.13503904 -36.38401274 33.96192674 -35.75 29.3125 C-33.44761091 24.79299548 -31.26141508 22.52121363 -26.75 20.3125 C-23.34510026 19.39788694 -19.90494047 18.75477541 -16.4375 18.125 C-15.50615234 17.94775391 -14.57480469 17.77050781 -13.61523438 17.58789062 C-11.32832405 17.15396405 -9.04011076 16.7291442 -6.75 16.3125 C-6.75 14.3325 -6.75 12.3525 -6.75 10.3125 C-10.17682648 8.59908676 -14.00202723 8.77508119 -17.75 9.3125 C-18.245 9.9725 -18.74 10.6325 -19.25 11.3125 C-20.75 13.3125 -20.75 13.3125 -22.77734375 13.61328125 C-26.61067411 13.63191981 -30.04965004 13.34927231 -33.75 12.3125 C-32.53084942 6.0643533 -28.72452989 2.88825119 -23.75 -0.6875 C-16.94993303 -2.95418899 -6.51918424 -3.06785141 0 0 Z " fill="#F9F9F9" transform="translate(1408.75,699.6875)"/>
<path d="M0 0 C4.18230966 2.35730181 6.93312905 4.82512533 9.4375 8.9375 C10.19898864 12.04243062 10.14404881 14.97053904 10.0234375 18.15234375 C10.01494781 19.00808487 10.00645813 19.86382599 9.99771118 20.74549866 C9.96434354 23.45665838 9.88910286 26.16475222 9.8125 28.875 C9.78237857 30.721962 9.75500658 32.56897101 9.73046875 34.41601562 C9.66460774 38.92434352 9.56120805 43.43040352 9.4375 47.9375 C5.1475 47.9375 0.8575 47.9375 -3.5625 47.9375 C-3.8925 46.6175 -4.2225 45.2975 -4.5625 43.9375 C-5.23732422 44.47890625 -5.23732422 44.47890625 -5.92578125 45.03125 C-10.86505719 48.59465548 -14.77922235 49.7177593 -20.87109375 49.4296875 C-25.10010095 48.65631318 -28.44997505 46.90180948 -31.5625 43.9375 C-34.7076209 39.16808969 -34.29003071 33.4127311 -33.5625 27.9375 C-29.90680579 22.66899952 -24.46424915 20.18098937 -18.2578125 18.98828125 C-16.73597897 18.73245579 -15.21245668 18.48649752 -13.6875 18.25 C-12.90375 18.12044922 -12.12 17.99089844 -11.3125 17.85742188 C-9.39724158 17.54210494 -7.48004727 17.23858482 -5.5625 16.9375 C-4.88291397 14.54030568 -4.88291397 14.54030568 -4.5625 11.9375 C-6.95536884 9.54463116 -7.65697094 9.61699384 -10.9375 9.5625 C-12.09378906 9.51996094 -12.09378906 9.51996094 -13.2734375 9.4765625 C-15.75251123 9.74433105 -15.75251123 9.74433105 -17.4609375 11.9765625 C-19.5625 13.9375 -19.5625 13.9375 -22.578125 14.109375 C-23.64546875 13.97015625 -24.7128125 13.8309375 -25.8125 13.6875 C-26.89015625 13.55859375 -27.9678125 13.4296875 -29.078125 13.296875 C-29.89796875 13.17828125 -30.7178125 13.0596875 -31.5625 12.9375 C-31.48803777 9.81008646 -31.20087017 7.65314656 -29.078125 5.2734375 C-20.7958293 -1.91163099 -10.59777532 -3.33366913 0 0 Z " fill="#F9F9F9" transform="translate(1597.5625,574.0625)"/>
<path d="M0 0 C5.48005075 2.4994664 8.45169118 7.12043138 11.375 12.1875 C12.5 15.9375 12.5 15.9375 12.5 26.9375 C1.61 26.9375 -9.28 26.9375 -20.5 26.9375 C-18.28219042 34.2805518 -18.28219042 34.2805518 -15.75 36.9375 C-11.86511092 38.66411737 -8.16804487 38.52356982 -4.1875 37.125 C-2.19932522 35.87782008 -2.19932522 35.87782008 -0.5 32.9375 C3.6944205 32.66689223 7.47542684 32.59597561 11.5 33.9375 C11.5 37.2094327 11.03586163 39.30622886 8.8984375 41.82421875 C2.10865469 48.07658632 -4.31943954 49.48765151 -13.4296875 49.31640625 C-19.63125867 48.5510724 -25.14689017 45.75904262 -29.4375 41.1875 C-34.35179903 33.44375607 -35.73046838 25.61085106 -34.06640625 16.5859375 C-32.1124364 9.52251853 -27.96207126 4.04274836 -21.69921875 0.234375 C-15.12534358 -2.43049259 -6.76704726 -2.10327145 0 0 Z " fill="#F9F9F9" transform="translate(1544.5,574.0625)"/>
<path d="M0 0 C7.08392272 4.83285692 11.47296712 10.42095393 14.1953125 18.5703125 C14.74247384 21.59042854 14.59375 24.70025015 14.59375 27.76953125 C-6.85625 27.76953125 -28.30625 27.76953125 -50.40625 27.76953125 C-50.40625 18.21611459 -47.11202099 11.22746105 -40.53125 4.26953125 C-29.29197319 -6.08696711 -13.20097447 -7.57636572 0 0 Z " fill="#1D1D21" transform="translate(727.40625,517.23046875)"/>
<path d="M0 0 C6.33345718 3.45808673 9.41334872 7.25762559 11.96484375 13.9765625 C11.96484375 18.2665625 11.96484375 22.5565625 11.96484375 26.9765625 C1.07484375 26.9765625 -9.81515625 26.9765625 -21.03515625 26.9765625 C-18.20061955 35.9235869 -18.20061955 35.9235869 -13.03515625 37.9765625 C-10.76900024 38.15308405 -10.76900024 38.15308405 -8.47265625 37.8515625 C-7.70824219 37.78710938 -6.94382812 37.72265625 -6.15625 37.65625 C-3.85403234 37.15032385 -3.85403234 37.15032385 -2.5703125 34.94140625 C-1.03515625 32.9765625 -1.03515625 32.9765625 1.33984375 32.55078125 C2.20609375 32.58816406 3.07234375 32.62554688 3.96484375 32.6640625 C5.26421875 32.70080078 5.26421875 32.70080078 6.58984375 32.73828125 C8.96484375 32.9765625 8.96484375 32.9765625 11.96484375 33.9765625 C10.49647136 39.23823024 8.82680821 43.03699718 4.1953125 46.17578125 C-3.04801337 50.0057402 -11.62253265 50.42621922 -19.5 48.31640625 C-25.7380139 45.55060738 -29.38059762 40.6238563 -32.91015625 34.9765625 C-35.3621465 28.50154632 -35.16663864 19.98541679 -33.30859375 13.40234375 C-30.64415189 7.7160349 -26.22808156 3.4385127 -21.03515625 -0.0234375 C-14.55009471 -2.18512468 -6.48353148 -2.1862101 0 0 Z " fill="#F9F9FA" transform="translate(1970.03515625,699.0234375)"/>
<path d="M0 0 C6.33345718 3.45808673 9.41334872 7.25762559 11.96484375 13.9765625 C11.96484375 18.2665625 11.96484375 22.5565625 11.96484375 26.9765625 C1.07484375 26.9765625 -9.81515625 26.9765625 -21.03515625 26.9765625 C-18.20061955 35.9235869 -18.20061955 35.9235869 -13.03515625 37.9765625 C-10.76900024 38.15308405 -10.76900024 38.15308405 -8.47265625 37.8515625 C-7.70824219 37.78710938 -6.94382812 37.72265625 -6.15625 37.65625 C-3.85403234 37.15032385 -3.85403234 37.15032385 -2.5703125 34.94140625 C-1.03515625 32.9765625 -1.03515625 32.9765625 1.33984375 32.55078125 C2.20609375 32.58816406 3.07234375 32.62554688 3.96484375 32.6640625 C5.26421875 32.70080078 5.26421875 32.70080078 6.58984375 32.73828125 C8.96484375 32.9765625 8.96484375 32.9765625 11.96484375 33.9765625 C10.49647136 39.23823024 8.82680821 43.03699718 4.1953125 46.17578125 C-3.04801337 50.0057402 -11.62253265 50.42621922 -19.5 48.31640625 C-25.7380139 45.55060738 -29.38059762 40.6238563 -32.91015625 34.9765625 C-35.3621465 28.50154632 -35.16663864 19.98541679 -33.30859375 13.40234375 C-30.64415189 7.7160349 -26.22808156 3.4385127 -21.03515625 -0.0234375 C-14.55009471 -2.18512468 -6.48353148 -2.1862101 0 0 Z " fill="#F9F9FA" transform="translate(1812.03515625,574.0234375)"/>
<path d="M0 0 C6.14632132 3.6807145 9.75583787 8.45795405 12.41015625 15.09375 C12.41015625 19.05375 12.41015625 23.01375 12.41015625 27.09375 C1.52015625 27.09375 -9.36984375 27.09375 -20.58984375 27.09375 C-18.41471641 33.69110745 -18.41471641 33.69110745 -13.58984375 38.09375 C-9.58812832 38.66542363 -7.36219689 38.46313628 -3.71484375 36.71875 C-1.4931955 35.26614958 -1.4931955 35.26614958 -0.58984375 33.09375 C0.82638841 33.03927953 2.24323816 33.00074492 3.66015625 32.96875 C4.4490625 32.94554687 5.23796875 32.92234375 6.05078125 32.8984375 C8.61747566 33.1109122 10.20176295 33.80720895 12.41015625 35.09375 C9.64441938 41.79659465 6.83273172 44.98921409 0.14453125 48.171875 C-6.38435269 50.37304159 -14.86378277 50.37051443 -21.15234375 47.40625 C-27.07684369 43.78080974 -31.73801311 38.90021261 -33.58984375 32.09375 C-34.67290863 23.8833507 -35.03376222 14.97373003 -30.22265625 7.89453125 C-22.40580909 -0.72644134 -11.23887927 -3.93276017 0 0 Z " fill="#FAFAFA" transform="translate(1185.58984375,698.90625)"/>
<path d="M0 0 C5.48005075 2.4994664 8.45169118 7.12043138 11.375 12.1875 C12.5 15.9375 12.5 15.9375 12.5 26.9375 C1.61 26.9375 -9.28 26.9375 -20.5 26.9375 C-18.28219042 34.2805518 -18.28219042 34.2805518 -15.75 36.9375 C-12.48495062 38.38863306 -10.03453276 38.30955608 -6.5 37.9375 C-2.77196535 36.19021222 -2.77196535 36.19021222 -0.5 32.9375 C8.07142857 32.79464286 8.07142857 32.79464286 11.5 33.9375 C11.5 37.2094327 11.03586163 39.30622886 8.8984375 41.82421875 C2.10757569 48.07757992 -4.31593378 49.48033491 -13.42578125 49.3203125 C-19.59409779 48.55221209 -24.51863571 45.86806008 -28.9375 41.5625 C-32.60142007 35.40711428 -34.03833445 30.5989043 -33.9375 23.5 C-33.92920166 22.74936279 -33.92090332 21.99872559 -33.91235352 21.2253418 C-33.70834504 14.56130701 -32.53867506 10.06077854 -27.81640625 5.20703125 C-19.89720448 -1.9628267 -10.33608861 -3.24505107 0 0 Z " fill="#3DAF7D" transform="translate(1410.5,574.0625)"/>
<path d="M0 0 C4.65650865 2.6882147 7.33611644 6.08373985 9.4375 11 C10.4375 15 10.4375 15 10.4375 26 C-0.4525 26 -11.3425 26 -22.5625 26 C-19.7279633 34.9470244 -19.7279633 34.9470244 -14.5625 37 C-12.2948347 37.13971133 -12.2948347 37.13971133 -10 36.8125 C-9.23558594 36.73644531 -8.47117187 36.66039062 -7.68359375 36.58203125 C-5.47513776 36.18419242 -5.47513776 36.18419242 -4.203125 34.4609375 C-1.62707894 32.16702982 0.76890809 32.7128141 4.125 32.8125 C5.89423828 32.85310547 5.89423828 32.85310547 7.69921875 32.89453125 C8.60285156 32.92933594 9.50648437 32.96414063 10.4375 33 C8.49151978 39.36388125 5.69023403 42.83987324 0 46.3125 C-6.41451706 49.29458099 -14.28245163 49.14450661 -21.03125 47.33984375 C-27.22052823 44.59037592 -31.62998789 39.53567746 -34.4375 33.4375 C-36.75240489 26.32644486 -37.07189092 17.28612404 -33.875 10.4375 C-26.32567339 -1.94233979 -13.38420127 -5.91068769 0 0 Z " fill="#3DAF7D" transform="translate(1181.5625,575)"/>
<path d="M0 0 C4.95 0 9.9 0 15 0 C15.55429688 1.95164062 16.10859375 3.90328125 16.6796875 5.9140625 C17.22239678 7.82050279 17.76511588 9.7269403 18.30810547 11.63330078 C18.68293844 12.95022041 19.05729551 14.26727559 19.43115234 15.58447266 C19.97105381 17.48636555 20.5128539 19.38771915 21.0546875 21.2890625 C21.37937012 22.43068848 21.70405273 23.57231445 22.03857422 24.74853516 C22.9581072 27.85832191 23.95509371 30.93033367 25 34 C25.40109985 32.56164795 25.40109985 32.56164795 25.81030273 31.09423828 C26.80157773 27.54157955 27.79552315 23.9896726 28.7902832 20.43798828 C29.22070191 18.89978124 29.65039312 17.36137044 30.0793457 15.82275391 C30.69552171 13.61306838 31.31429792 11.40412538 31.93359375 9.1953125 C32.12529648 8.50567413 32.31699921 7.81603577 32.51451111 7.10549927 C33.88612829 2.22774341 33.88612829 2.22774341 35 0 C39.62 0 44.24 0 49 0 C47.66817717 6.50917652 45.8935543 12.66689036 43.69921875 18.93359375 C43.38096634 19.85157242 43.06271393 20.76955109 42.7348175 21.71534729 C42.06412347 23.64485973 41.39084113 25.57347427 40.71508789 27.5012207 C39.69258075 30.42298202 38.68274635 33.34891333 37.67382812 36.27539062 C37.01638924 38.16172487 36.35821017 40.04780133 35.69921875 41.93359375 C35.4031926 42.79431992 35.10716644 43.65504608 34.8021698 44.54185486 C28.66362052 61.92533579 28.66362052 61.92533579 20.23046875 67.08203125 C17.34305855 68.27036995 14.98810275 68.22956896 11.875 68.1875 C10.82054687 68.18105469 9.76609375 68.17460938 8.6796875 68.16796875 C6 68 6 68 4 67 C4.46800711 62.94393835 4.87953208 59.53411321 7 56 C8.11375 56.061875 9.2275 56.12375 10.375 56.1875 C11.57125 56.125625 12.7675 56.06375 14 56 C16.82197784 51.76703323 15.94599564 48.84590789 15 44 C14.1181427 40.77469014 13.02145926 37.65151894 11.875 34.51171875 C11.56804199 33.64609818 11.26108398 32.7804776 10.94482422 31.8886261 C9.97230364 29.15157336 8.98668692 26.41947388 8 23.6875 C7.01609417 20.93675154 6.03491587 18.18505028 5.05517578 15.43281555 C4.44719485 13.72778609 3.83631329 12.02378741 3.22216797 10.32096863 C2.94518066 9.5494899 2.66819336 8.77801117 2.3828125 7.9831543 C2.01760498 6.97130318 2.01760498 6.97130318 1.64501953 5.93901062 C0.99661386 3.98982084 0.49821863 1.99287453 0 0 Z " fill="#F8F8F8" transform="translate(1242,698)"/>
<path d="M0 0 C4.95 0 9.9 0 15 0 C21.3176819 21.8358714 21.3176819 21.8358714 23.45703125 31.015625 C23.81974938 32.98488799 23.81974938 32.98488799 25 34 C25.40109985 32.56164795 25.40109985 32.56164795 25.81030273 31.09423828 C26.80157773 27.54157955 27.79552315 23.9896726 28.7902832 20.43798828 C29.22070191 18.89978124 29.65039312 17.36137044 30.0793457 15.82275391 C30.69552171 13.61306838 31.31429792 11.40412538 31.93359375 9.1953125 C32.12529648 8.50567413 32.31699921 7.81603577 32.51451111 7.10549927 C33.88612829 2.22774341 33.88612829 2.22774341 35 0 C39.62 0 44.24 0 49 0 C47.66817717 6.50917652 45.8935543 12.66689036 43.69921875 18.93359375 C43.38096634 19.85157242 43.06271393 20.76955109 42.7348175 21.71534729 C42.06412347 23.64485973 41.39084113 25.57347427 40.71508789 27.5012207 C39.69258075 30.42298202 38.68274635 33.34891333 37.67382812 36.27539062 C37.01638924 38.16172487 36.35821017 40.04780133 35.69921875 41.93359375 C35.4031926 42.79431992 35.10716644 43.65504608 34.8021698 44.54185486 C28.58616264 62.14468528 28.58616264 62.14468528 22 66 C16.83696163 68.4014132 11.59851195 68.43297844 6 68 C5.34 67.67 4.68 67.34 4 67 C4.28109113 65.35232753 4.57518526 63.70686855 4.875 62.0625 C5.03742188 61.14597656 5.19984375 60.22945312 5.3671875 59.28515625 C5.57601563 58.53105469 5.78484375 57.77695312 6 57 C8 56 8 56 11 56.125 C12.485 56.063125 12.485 56.063125 14 56 C16.82197784 51.76703323 15.94599564 48.84590789 15 44 C14.1181427 40.77469014 13.02145926 37.65151894 11.875 34.51171875 C11.56804199 33.64609818 11.26108398 32.7804776 10.94482422 31.8886261 C9.97230364 29.15157336 8.98668692 26.41947388 8 23.6875 C7.01609417 20.93675154 6.03491587 18.18505028 5.05517578 15.43281555 C4.44719485 13.72778609 3.83631329 12.02378741 3.22216797 10.32096863 C2.94518066 9.5494899 2.66819336 8.77801117 2.3828125 7.9831543 C2.01760498 6.97130318 2.01760498 6.97130318 1.64501953 5.93901062 C0.99661386 3.98982084 0.49821863 1.99287453 0 0 Z " fill="#3DAD7C" transform="translate(1035,573)"/>
<path d="M0 0 C4.62 0 9.24 0 14 0 C14.01458252 0.9787207 14.02916504 1.95744141 14.04418945 2.96582031 C14.10225106 6.60404626 14.1794826 10.24165836 14.26245117 13.87939453 C14.29566372 15.45253522 14.32370717 17.02579401 14.34643555 18.59912109 C14.38005028 20.86346672 14.43236624 23.12673365 14.48828125 25.390625 C14.49467117 26.09181458 14.5010611 26.79300415 14.50764465 27.51544189 C14.59901142 30.5636659 14.86408317 32.74696041 16.31713867 35.45214844 C18.04534845 37.34881961 18.04534845 37.34881961 21.4375 37.375 C24.60330291 37.04175759 26.42073191 36.78564714 29 35 C30.49983085 32.0003383 30.23902055 28.88053039 30.31640625 25.5859375 C30.33718735 24.85629791 30.35796844 24.12665833 30.37937927 23.37490845 C30.44481917 21.04170237 30.50373368 18.70838279 30.5625 16.375 C30.60569053 14.79425905 30.64930499 13.21352961 30.69335938 11.6328125 C30.80049481 7.75532496 30.90177782 3.87772315 31 0 C35.62 0 40.24 0 45 0 C45 16.17 45 32.34 45 49 C40.71 49 36.42 49 32 49 C31.67 46.69 31.34 44.38 31 42 C30.484375 42.763125 29.96875 43.52625 29.4375 44.3125 C25.55435252 48.59391902 21.72137669 49.78141248 16.0625 50.5 C11.29485048 50.27781827 7.34767873 48.37581048 4 45 C0.39960882 39.40323131 -0.56724377 34.69556273 -0.390625 28.125 C-0.38496521 27.31506592 -0.37930542 26.50513184 -0.37347412 25.6706543 C-0.3512902 23.11313833 -0.30113203 20.55708409 -0.25 18 C-0.22991157 16.25392665 -0.21166493 14.50783108 -0.1953125 12.76171875 C-0.15148505 8.50725925 -0.08258721 4.25387643 0 0 Z " fill="#F8F8F8" transform="translate(1098,698)"/>
<path d="M0 0 C4.62 0 9.24 0 14 0 C14.01401855 1.46808105 14.01401855 1.46808105 14.02832031 2.96582031 C14.06825458 6.60413791 14.13402134 10.24161291 14.20751953 13.87939453 C14.23570954 15.45252644 14.25693398 17.02579947 14.27099609 18.59912109 C14.29245442 20.86368956 14.33911348 23.12656504 14.390625 25.390625 C14.39185364 26.09181458 14.39308228 26.79300415 14.39434814 27.51544189 C14.49445636 30.86809553 14.7951376 32.72476082 16.81933594 35.44433594 C20.0159462 37.72476592 22.17312533 37.54669638 26 37 C28.36497439 35.13291495 29.66030715 33.67938569 31 31 C31.15520557 28.67726841 31.25019167 26.35040687 31.31640625 24.0234375 C31.33718735 23.33819 31.35796844 22.6529425 31.37937927 21.94692993 C31.44480185 19.75638931 31.50372554 17.56572811 31.5625 15.375 C31.60569218 13.8906125 31.6493067 12.40623722 31.69335938 10.921875 C31.80047553 7.28137916 31.90176362 3.64074749 32 0 C36.29 0 40.58 0 45 0 C45 16.17 45 32.34 45 49 C40.71 49 36.42 49 32 49 C31.67 47.02 31.34 45.04 31 43 C30.113125 43.78375 29.22625 44.5675 28.3125 45.375 C23.41254664 49.41631668 19.41421208 50.56265018 13 50 C7.20766593 47.91475973 3.70072965 44.27451171 0.87158203 38.82739258 C-0.28274456 35.08278297 -0.24785374 31.51346741 -0.1953125 27.63671875 C-0.1924826 26.84473587 -0.18965271 26.05275299 -0.18673706 25.23677063 C-0.17558863 22.72019001 -0.15049422 20.20397211 -0.125 17.6875 C-0.11496329 15.97591662 -0.10583864 14.26432763 -0.09765625 12.55273438 C-0.07566681 8.36835094 -0.04117408 4.18423686 0 0 Z " fill="#FAFAFA" transform="translate(1882,698)"/>
<path d="M0 0 C3.83917052 2.28470411 6.91124555 5.22735605 9.26171875 9.046875 C9.26171875 10.366875 9.26171875 11.686875 9.26171875 13.046875 C5.24246379 13.69431479 1.33714445 14.19662818 -2.73828125 14.046875 C-5.55078125 11.609375 -5.55078125 11.609375 -7.73828125 9.046875 C-12.17971859 8.51083946 -13.98780643 8.54655846 -17.73828125 11.046875 C-17.40828125 12.696875 -17.07828125 14.346875 -16.73828125 16.046875 C-15.67609375 16.28921875 -14.61390625 16.5315625 -13.51953125 16.78125 C4.50100639 21.00684351 4.50100639 21.00684351 8.921875 25.875 C11.3316576 29.78123652 11.17448009 33.6351952 10.26171875 38.046875 C7.44764069 43.12074301 3.29859175 46.98453578 -2.3125 48.640625 C-11.02429678 50.09960546 -18.97302879 50.05141302 -26.73828125 45.54296875 C-29.73323817 43.30260058 -31.14798547 41.44432507 -32.73828125 38.046875 C-32.73828125 36.726875 -32.73828125 35.406875 -32.73828125 34.046875 C-26.30328125 33.551875 -26.30328125 33.551875 -19.73828125 33.046875 C-19.40828125 34.366875 -19.07828125 35.686875 -18.73828125 37.046875 C-16.06184168 37.93902152 -14.48443747 38.18227711 -11.73828125 38.171875 C-10.71734375 38.17574219 -10.71734375 38.17574219 -9.67578125 38.1796875 C-7.51953344 38.11318626 -7.51953344 38.11318626 -4.73828125 37.046875 C-4.73828125 35.396875 -4.73828125 33.746875 -4.73828125 32.046875 C-8.23835589 30.00951812 -11.65154862 29.39606268 -15.61328125 28.671875 C-22.29226977 27.28475381 -26.12507805 26.09561207 -30.61328125 20.859375 C-32.22266472 16.83591631 -32.39507189 13.31978885 -31.73828125 9.046875 C-29.71103965 4.57004981 -27.02017179 1.77403236 -22.4765625 -0.25390625 C-15.41704387 -2.05655081 -6.9301501 -2.41220631 0 0 Z " fill="#F9F9F9" transform="translate(1628.73828125,698.953125)"/>
<path d="M0 0 C3.40258114 2.53525653 5.29234492 4.58468985 7.1875 8.375 C7.1875 9.695 7.1875 11.015 7.1875 12.375 C3.16808585 13.02246544 -0.73693539 13.524562 -4.8125 13.375 C-7.6875 10.9375 -7.6875 10.9375 -9.8125 8.375 C-13.95474306 7.79508597 -15.29425489 8.02950326 -18.8125 10.375 C-18.4825 12.025 -18.1525 13.675 -17.8125 15.375 C-16.31009766 15.75591797 -16.31009766 15.75591797 -14.77734375 16.14453125 C-13.43482073 16.49189735 -12.09237701 16.83957005 -10.75 17.1875 C-10.09322266 17.35314453 -9.43644531 17.51878906 -8.75976562 17.68945312 C-1.22093466 19.65771934 4.85875218 21.55394283 9.1875 28.375 C9.93130146 33.58161025 9.02236175 36.9760766 6.1875 41.375 C0.456683 46.94662764 -4.8821952 48.56884678 -12.6875 48.8125 C-19.60747427 48.64336142 -25.14503739 47.60059964 -30.43359375 42.94921875 C-33.20798054 39.90761057 -34.16669188 37.35075623 -34.8125 33.375 C-30.46181029 32.731633 -26.21458656 32.22431733 -21.8125 32.375 C-19 34.8125 -19 34.8125 -16.8125 37.375 C-13.92231817 37.9749579 -11.8126195 37.71372317 -8.8125 37.375 C-7.8225 36.715 -6.8325 36.055 -5.8125 35.375 C-5.8125 34.055 -5.8125 32.735 -5.8125 31.375 C-9.29624248 29.35218178 -12.68411057 28.72584096 -16.625 28 C-28.67141585 25.48302538 -28.67141585 25.48302538 -32.75 19.5625 C-34.42730642 14.53058073 -34.63285699 11.08407707 -32.3125 6.25 C-24.37982961 -2.87257095 -11.23589807 -5.01489236 0 0 Z " fill="#3DAE7C" transform="translate(1275.8125,574.625)"/>
<path d="M0 0 C4.85672631 2.89336887 8.5590605 5.49239689 10.9375 10.75 C10.98440068 12.74945001 10.98982368 14.75068456 10.9375 16.75 C6.88351331 17.09420642 2.97814938 17.29852901 -1.0625 16.75 C-3.3125 13.8125 -3.3125 13.8125 -5.0625 10.75 C-7.76466999 9.62168491 -10.16495792 9.38780724 -13.0625 9.75 C-15.92243478 11.51464061 -17.56032849 12.74565697 -19.0625 15.75 C-19.21227039 17.99655587 -19.28400174 20.24863768 -19.3125 22.5 C-19.33828125 23.71171875 -19.3640625 24.9234375 -19.390625 26.171875 C-19.03408224 30.05988885 -18.10171452 32.44370073 -16.0625 35.75 C-13.00556678 37.27846661 -10.43265453 36.98242445 -7.0625 36.75 C-4.63965762 35.6424098 -4.63965762 35.6424098 -3.0625 33.75 C-2.7325 32.43 -2.4025 31.11 -2.0625 29.75 C2.2275 29.75 6.5175 29.75 10.9375 29.75 C10.82297583 36.16335347 9.36478727 39.4433181 4.875 44.05078125 C-0.88065992 49.09858784 -6.47154425 49.30286242 -13.91015625 49.08984375 C-21.56212249 48.26491059 -25.73386246 44.56001089 -30.6171875 38.84765625 C-35.44990996 31.83367798 -35.02675173 22.94513315 -34.0625 14.75 C-32.03359788 7.73849175 -27.24585096 3.37204659 -21.0625 -0.25 C-14.82461536 -2.32929488 -6.16552877 -2.51542637 0 0 Z " fill="#F9F9F9" transform="translate(1650.0625,574.25)"/>
<path d="M0 0 C4.62 0 9.24 0 14 0 C14 17.82 14 35.64 14 54 C23.24 54 32.48 54 42 54 C42 57.63 42 61.26 42 65 C28.14 65 14.28 65 0 65 C0 43.55 0 22.1 0 0 Z " fill="#FCFCFC" transform="translate(1978,557)"/>
<path d="M0 0 C4.95 0 9.9 0 15 0 C15.48210937 1.74667969 15.96421875 3.49335937 16.4609375 5.29296875 C17.0988103 7.59118693 17.7368393 9.88936175 18.375 12.1875 C18.69210937 13.33798828 19.00921875 14.48847656 19.3359375 15.67382812 C19.8 17.34155273 19.8 17.34155273 20.2734375 19.04296875 C20.55622559 20.06414795 20.83901367 21.08532715 21.13037109 22.13745117 C21.95274022 25.00274627 21.95274022 25.00274627 23.10009766 27.6965332 C24.10881335 30.27852793 24.15700696 32.25237813 24 35 C24.66 35 25.32 35 26 35 C26.10441406 33.71351563 26.20882813 32.42703125 26.31640625 31.1015625 C26.89029304 25.94767582 28.289566 21.27533132 29.9375 16.375 C30.46829106 14.75808904 30.99825311 13.14090567 31.52734375 11.5234375 C31.7785498 10.7612793 32.02975586 9.99912109 32.28857422 9.21386719 C33.26922349 6.16221051 34.14301076 3.08847329 35 0 C39.62 0 44.24 0 49 0 C47.68863329 6.41894308 45.94416644 12.46373242 43.7421875 18.62890625 C43.43427277 19.50401352 43.12635803 20.37912079 42.80911255 21.28074646 C41.83592261 24.04307064 40.85559529 26.80279711 39.875 29.5625 C39.2091596 31.44839978 38.54379051 33.33446604 37.87890625 35.22070312 C36.25804319 39.81574344 34.63077929 44.40847009 33 49 C27.72 49 22.44 49 17 49 C14.73726431 42.66540472 12.47698988 36.32993875 10.21899414 29.99365234 C9.45046531 27.83813745 8.68126386 25.68286224 7.91137695 23.52783203 C6.80503348 20.43064096 5.70110986 17.33259664 4.59765625 14.234375 C4.25283707 13.27070007 3.90801788 12.30702515 3.55274963 11.31414795 C3.23249313 10.41351624 2.91223663 9.51288452 2.58227539 8.58496094 C2.30025772 7.79442322 2.01824005 7.0038855 1.72767639 6.18939209 C1.0520893 4.15672338 0.51951108 2.07804433 0 0 Z " fill="#F9F9F9" transform="translate(1725,573)"/>
<path d="M0 0 C0.85722656 -0.00257813 1.71445313 -0.00515625 2.59765625 -0.0078125 C4.9375 0.125 4.9375 0.125 7.9375 1.125 C7.6075 4.425 7.2775 7.725 6.9375 11.125 C4.2975 11.455 1.6575 11.785 -1.0625 12.125 C-1.7225 14.435 -2.3825 16.745 -3.0625 19.125 C-0.0925 19.125 2.8775 19.125 5.9375 19.125 C5.9375 22.755 5.9375 26.385 5.9375 30.125 C2.9675 30.125 -0.0025 30.125 -3.0625 30.125 C-3.0625 42.665 -3.0625 55.205 -3.0625 68.125 C-7.6825 68.125 -12.3025 68.125 -17.0625 68.125 C-17.0625 55.585 -17.0625 43.045 -17.0625 30.125 C-19.3725 30.125 -21.6825 30.125 -24.0625 30.125 C-24.0625 26.495 -24.0625 22.865 -24.0625 19.125 C-21.7525 19.125 -19.4425 19.125 -17.0625 19.125 C-17.10890625 18.54492188 -17.1553125 17.96484375 -17.203125 17.3671875 C-17.46471072 11.70572514 -16.89069378 8.59122607 -13.0625 4.125 C-9.02250398 0.46375361 -5.33390754 -0.01609022 0 0 Z " fill="#F7F7F7" transform="translate(1689.0625,678.875)"/>
<path d="M0 0 C-0.66 3.3 -1.32 6.6 -2 10 C-4.64 10.33 -7.28 10.66 -10 11 C-10.66 13.31 -11.32 15.62 -12 18 C-8.7 18 -5.4 18 -2 18 C-2 21.63 -2 25.26 -2 29 C-5.3 29 -8.6 29 -12 29 C-12 41.54 -12 54.08 -12 67 C-16.29 67 -20.58 67 -25 67 C-25 54.13 -25 41.26 -25 28 C-27.31 28 -29.62 28 -32 28 C-32 24.7 -32 21.4 -32 18 C-29.69 18 -27.38 18 -25 18 C-25.03480469 17.33613281 -25.06960938 16.67226563 -25.10546875 15.98828125 C-25.38967607 6.71770924 -25.38967607 6.71770924 -22 3 C-15.22128069 -2.2252628 -8.11557808 -2.02889452 0 0 Z " fill="#3DAF7D" transform="translate(1374,555)"/>
<path d="M0 0 C4.62 0 9.24 0 14 0 C14 3.96 14 7.92 14 12 C16.97 12 19.94 12 23 12 C23 15.63 23 19.26 23 23 C20.03 23 17.06 23 14 23 C14.33 31.58 14.66 40.16 15 49 C17.64 49.99 20.28 50.98 23 52 C23.33 54.97 23.66 57.94 24 61 C18.56382947 62.81205684 13.01784814 62.7099836 7.625 60.8125 C3.74649055 58.13448157 1.49208411 55.47625233 0 51 C-0.0833804 48.86205475 -0.10733747 46.72157991 -0.09765625 44.58203125 C-0.09443359 43.32841797 -0.09121094 42.07480469 -0.08789062 40.78320312 C-0.07951172 39.47287109 -0.07113281 38.16253906 -0.0625 36.8125 C-0.05748317 35.47721519 -0.05292059 34.14192859 -0.04882812 32.80664062 C-0.03702695 29.53771527 -0.02056297 26.26888009 0 23 C-1.98 23 -3.96 23 -6 23 C-6 19.37 -6 15.74 -6 12 C-4.02 12 -2.04 12 0 12 C0 8.04 0 4.08 0 0 Z " fill="#F5F5F5" transform="translate(1673,561)"/>
<path d="M0 0 C4.29 0 8.58 0 13 0 C13 3.63 13 7.26 13 11 C15.97 11 18.94 11 22 11 C22 14.3 22 17.6 22 21 C19.03 21 16.06 21 13 21 C13.13837796 25.29194146 13.28695939 29.58346929 13.4375 33.875 C13.47681641 35.09832031 13.51613281 36.32164062 13.55664062 37.58203125 C13.59853516 38.74863281 13.64042969 39.91523437 13.68359375 41.1171875 C13.72025146 42.19597168 13.75690918 43.27475586 13.79467773 44.38623047 C13.83376643 46.98069536 13.83376643 46.98069536 15 49 C17.32156597 49.40729228 19.6568787 49.74438677 22 50 C22.33 53.3 22.66 56.6 23 60 C17.16686921 61.4582827 11.61946706 62.20555272 6.125 59.3125 C2.89220274 56.92023003 1.68854177 55.58616484 0 52 C-0.34057617 48.58666992 -0.34057617 48.58666992 -0.29296875 44.73046875 C-0.28872391 44.04946609 -0.28447906 43.36846344 -0.28010559 42.66682434 C-0.2634061 40.50663541 -0.22577312 38.34740358 -0.1875 36.1875 C-0.17244174 34.71681042 -0.15875534 33.24610611 -0.14648438 31.77539062 C-0.11353214 28.18328643 -0.06181173 24.59173674 0 21 C-2.31 21 -4.62 21 -7 21 C-7 17.7 -7 14.4 -7 11 C-4.69 11 -2.38 11 0 11 C0 7.37 0 3.74 0 0 Z " fill="#3DB07D" transform="translate(1008,562)"/>
<path d="M0 0 C4.62 0 9.24 0 14 0 C14.33 1.65 14.66 3.3 15 5 C15.78375 4.175 16.5675 3.35 17.375 2.5 C21.05610418 -0.64132688 24.35503149 -0.41677566 29.0234375 -0.17578125 C29.67570312 -0.11777344 30.32796875 -0.05976562 31 0 C32.12377697 3.30435084 31.89554742 5.0506862 30.5625 8.25 C30.13130859 9.30960938 30.13130859 9.30960938 29.69140625 10.390625 C29.46324219 10.92171875 29.23507812 11.4528125 29 12 C27.96939453 12.05607422 27.96939453 12.05607422 26.91796875 12.11328125 C26.01691406 12.17902344 25.11585937 12.24476563 24.1875 12.3125 C23.29417969 12.37050781 22.40085937 12.42851563 21.48046875 12.48828125 C18.64024462 13.07421725 17.72487059 13.70924126 16 16 C14.85705686 19.42882941 14.79035528 22.24082838 14.68359375 25.85546875 C14.66281265 26.51710526 14.64203156 27.17874176 14.62062073 27.86042786 C14.55535273 29.96934852 14.49634656 32.07839135 14.4375 34.1875 C14.39429311 35.61915315 14.35067812 37.05079404 14.30664062 38.48242188 C14.19892815 41.98815796 14.09968692 45.49398975 14 49 C9.38 49 4.76 49 0 49 C0 32.83 0 16.66 0 0 Z " fill="#F6F6F6" transform="translate(1427,698)"/>
<path d="M0 0 C4.62 0 9.24 0 14 0 C14.33 1.65 14.66 3.3 15 5 C15.78375 4.175 16.5675 3.35 17.375 2.5 C21.05610418 -0.64132688 24.35503149 -0.41677566 29.0234375 -0.17578125 C29.67570312 -0.11777344 30.32796875 -0.05976562 31 0 C32.12377697 3.30435084 31.89554742 5.0506862 30.5625 8.25 C30.13130859 9.30960938 30.13130859 9.30960938 29.69140625 10.390625 C29.46324219 10.92171875 29.23507812 11.4528125 29 12 C27.96939453 12.05607422 27.96939453 12.05607422 26.91796875 12.11328125 C26.01691406 12.17902344 25.11585937 12.24476563 24.1875 12.3125 C23.29417969 12.37050781 22.40085937 12.42851563 21.48046875 12.48828125 C18.64024462 13.07421725 17.72487059 13.70924126 16 16 C14.85705686 19.42882941 14.79035528 22.24082838 14.68359375 25.85546875 C14.66281265 26.51710526 14.64203156 27.17874176 14.62062073 27.86042786 C14.55535273 29.96934852 14.49634656 32.07839135 14.4375 34.1875 C14.39429311 35.61915315 14.35067812 37.05079404 14.30664062 38.48242188 C14.19892815 41.98815796 14.09968692 45.49398975 14 49 C9.38 49 4.76 49 0 49 C0 32.83 0 16.66 0 0 Z " fill="#F6F6F6" transform="translate(1476,573)"/>
<path d="M0 0 C4.29 0 8.58 0 13 0 C13.33 1.98 13.66 3.96 14 6 C14.928125 4.7934375 14.928125 4.7934375 15.875 3.5625 C18 1 18 1 20 0 C21.66444461 -0.0955931 23.33281963 -0.12984645 25 -0.125 C25.886875 -0.12757813 26.77375 -0.13015625 27.6875 -0.1328125 C30 0 30 0 32 1 C31.52269162 2.4589426 31.04308958 3.91713496 30.5625 5.375 C30.29566406 6.18710937 30.02882813 6.99921875 29.75390625 7.8359375 C29 10 29 10 28 12 C26.07421875 12.2734375 26.07421875 12.2734375 23.6875 12.375 C20.32563626 12.66896265 19.24637882 12.80905642 16.5 14.9375 C13.79904625 18.65131141 13.81840479 21.17423706 13.68359375 25.7578125 C13.66281265 26.42086395 13.64203156 27.08391541 13.62062073 27.76705933 C13.55520769 29.88626694 13.49627895 32.005599 13.4375 34.125 C13.39430691 35.56121081 13.35069236 36.99740902 13.30664062 38.43359375 C13.19874091 41.95560344 13.09960757 45.47770688 13 49 C8.71 49 4.42 49 0 49 C0 32.83 0 16.66 0 0 Z " fill="#FBFBFB" transform="translate(1207,698)"/>
<path d="M0 0 C4.29 0 8.58 0 13 0 C13.33 1.98 13.66 3.96 14 6 C14.928125 4.7934375 14.928125 4.7934375 15.875 3.5625 C18 1 18 1 20 0 C21.70702735 -0.06996014 23.41668003 -0.08440154 25.125 -0.0625 C26.03507812 -0.05347656 26.94515625 -0.04445313 27.8828125 -0.03515625 C28.93082031 -0.01775391 28.93082031 -0.01775391 30 0 C31.12377697 3.30435084 30.89554742 5.0506862 29.5625 8.25 C29.13130859 9.30960938 29.13130859 9.30960938 28.69140625 10.390625 C28.46324219 10.92171875 28.23507812 11.4528125 28 12 C27.32453125 12.01417969 26.6490625 12.02835938 25.953125 12.04296875 C25.06109375 12.09066406 24.1690625 12.13835938 23.25 12.1875 C22.36828125 12.22230469 21.4865625 12.25710938 20.578125 12.29296875 C16.95279156 13.28718898 16.02104082 14.86644035 14 18 C13.36207191 21.47201124 13.36207191 21.47201124 13.390625 25.26953125 C13.37408875 25.95053391 13.35755249 26.63153656 13.34051514 27.33317566 C13.29220697 29.49304371 13.2707049 31.65220875 13.25 33.8125 C13.22182556 35.28323817 13.19189606 36.75394383 13.16015625 38.22460938 C13.08645604 41.81625414 13.03677515 45.40776571 13 49 C8.71 49 4.42 49 0 49 C0 32.83 0 16.66 0 0 Z " fill="#FCFCFC" transform="translate(1757,698)"/>
<path d="M0 0 C4.29 0 8.58 0 13 0 C13 16.17 13 32.34 13 49 C8.71 49 4.42 49 0 49 C0 32.83 0 16.66 0 0 Z " fill="#FDFDFD" transform="translate(1705,573)"/>
<path d="M0 0 C3.29361222 0.93507616 4.5020762 2.71164117 6.16015625 5.61328125 C7.98051068 11.07434453 8.03750137 17.17362229 5.84765625 22.55078125 C4.38110132 25.21230686 3.47888558 26.75504723 1.16015625 28.61328125 C-1.90442271 29.29053627 -4.76418092 29.21951497 -7.83984375 28.61328125 C-11.44552534 25.27802578 -12.73028301 22.32832823 -13.04296875 17.43359375 C-13.0584375 16.21414063 -13.07390625 14.9946875 -13.08984375 13.73828125 C-13.12851563 11.91683594 -13.12851563 11.91683594 -13.16796875 10.05859375 C-12.81431206 6.34519847 -12.09125969 4.54853848 -9.83984375 1.61328125 C-6.08517301 -0.88983258 -4.31988765 -0.58300923 0 0 Z " fill="#1F1F23" transform="translate(1726.83984375,708.38671875)"/>
<path d="M0 0 C3.85476085 0.02455262 4.56160177 0.2258514 7.75 2.75 C11.72285516 7.9643724 11.2175519 12.98790703 10.75 19.375 C9.29196614 23.53039649 7.7524039 26.37379805 3.75 28.375 C0.29815594 29.01423038 -1.9637394 29.15182259 -5.03515625 27.296875 C-8.08348674 24.44311879 -9.13208136 22.15182279 -9.76171875 18.00390625 C-10.07596589 7.76378394 -10.07596589 7.76378394 -7.3125 3.5625 C-4.5338781 0.61547678 -4.03940801 0.1738818 0 0 Z " fill="#1B1E20" transform="translate(1114.25,583.625)"/>
<path d="M0 0 C3.85476085 0.02455262 4.56160177 0.2258514 7.75 2.75 C11.72580491 7.96824394 11.20945084 12.98445655 10.75 19.375 C9.48459827 23.17120518 8.5151452 24.754612 5.4375 27.25 C2.13905027 28.6307464 0.2861177 29.03802207 -3.25 28.375 C-7.99794101 23.62705899 -9.40514925 20.14638679 -9.5625 13.5625 C-9.52900487 6.64575585 -7.73101682 0.33279211 0 0 Z " fill="#1F1F23" transform="translate(1063.25,708.625)"/>
<path d="M0 0 C3.81852481 1.06531308 5.06003483 3.3262263 7.15625 6.6015625 C9.44912635 11.1873152 8.90227702 17.30161579 7.35546875 22.0703125 C5.69753316 25.21526249 4.33620079 27.11720657 0.99609375 28.48828125 C-1.47904155 28.9386815 -3.36529916 29.03708738 -5.84375 28.6015625 C-9.16750203 26.10874848 -10.53309755 24.53351984 -11.84375 20.6015625 C-13.0128481 7.15693436 -13.0128481 7.15693436 -9.90625 2.7265625 C-6.35299407 0.26103798 -4.26060753 -0.26983848 0 0 Z " fill="#202024" transform="translate(1344.84375,708.3984375)"/>
<path d="M0 0 C14.28944505 -0.43743199 14.28944505 -0.43743199 19 3 C21.48386059 6.72579089 21.3804212 8.58711402 21 13 C19.34860695 16.5386994 18.28394771 17.81070153 15 20 C12.3886146 20.14269866 9.91622711 20.18772704 7.3125 20.125 C4.899375 20.08375 2.48625 20.0425 0 20 C0 13.4 0 6.8 0 0 Z " fill="#232326" transform="translate(1933,568)"/>
<path d="M0 0 C9.9 0 19.8 0 30 0 C30 3.63 30 7.26 30 11 C20.1 11 10.2 11 0 11 C0 7.37 0 3.74 0 0 Z " fill="#3CAC7B" transform="translate(1202,590)"/>
<path d="M0 0 C3.96 0 7.92 0 12 0 C10.99950247 9.17122739 9.45011253 16.84146036 5 25 C2.36 25 -0.28 25 -3 25 C-2.25166929 16.63051177 -1.14302815 8.3230205 0 0 Z " fill="#F5F5F5" transform="translate(1435,613)"/>
<path d="M0 0 C0.59932334 7.07201547 0.59932334 7.07201547 -1.9375 11 C-5.55052067 13.3595237 -7.70160347 13.52625797 -11.9140625 13.46875 C-14.47700179 12.89280859 -15.40887489 12.06201883 -17 10 C-17.4375 7.5 -17.4375 7.5 -17 5 C-14.0124332 2.1795698 -11.38133639 1.4442269 -7.375 0.8125 C-6.41335938 0.65394531 -5.45171875 0.49539063 -4.4609375 0.33203125 C-2 0 -2 0 0 0 Z " fill="#242428" transform="translate(1492,725)"/>
<path d="M0 0 C0.59932334 7.07201547 0.59932334 7.07201547 -1.9375 11 C-5.55052067 13.3595237 -7.70160347 13.52625797 -11.9140625 13.46875 C-14.47700179 12.89280859 -15.40887489 12.06201883 -17 10 C-17.4375 7.5 -17.4375 7.5 -17 5 C-14.0124332 2.1795698 -11.38133639 1.4442269 -7.375 0.8125 C-6.41335938 0.65394531 -5.45171875 0.49539063 -4.4609375 0.33203125 C-2 0 -2 0 0 0 Z " fill="#1C2022" transform="translate(1321,600)"/>
<path d="M0 0 C0.32470459 4.13998349 0.4304413 6.33999001 -1.875 9.875 C-4.83167337 12.83167337 -6.43122437 13.15447422 -10.5 13.1875 C-11.2940625 13.20167969 -12.088125 13.21585938 -12.90625 13.23046875 C-15 13 -15 13 -17 11 C-17.375 8.0625 -17.375 8.0625 -17 5 C-14.05021189 2.14670028 -11.36859575 1.44221793 -7.375 0.8125 C-6.41335938 0.65394531 -5.45171875 0.49539063 -4.4609375 0.33203125 C-2 0 -2 0 0 0 Z " fill="#212125" transform="translate(1594,600)"/>
<path d="M0 0 C0.76774904 7.98458998 0.76774904 7.98458998 -1.9375 11.5625 C-5.93799618 13.44028392 -9.6454373 13.90516191 -14 13 C-15.78125 11.62890625 -15.78125 11.62890625 -17 10 C-16.86290003 7.25800054 -16.46505776 5.60954172 -14.79296875 3.41796875 C-12.4098358 1.53326883 -10.42359135 1.27770997 -7.4375 0.8125 C-5.98150391 0.57466797 -5.98150391 0.57466797 -4.49609375 0.33203125 C-2 0 -2 0 0 0 Z " fill="#222225" transform="translate(1403,725)"/>
<path d="M0 0 C3.5580016 0.80570688 5.08956324 2.582003 7.15625 5.48828125 C7.48625 7.13828125 7.81625 8.78828125 8.15625 10.48828125 C1.22625 10.48828125 -5.70375 10.48828125 -12.84375 10.48828125 C-11.28303519 2.68470722 -7.88455566 -0.45993241 0 0 Z " fill="#1D2525" transform="translate(1171.84375,582.51171875)"/>
<path d="M0 0 C2.85432986 0.5315756 4.69665618 1.52040803 6.9296875 3.359375 C8.66492678 6.00354914 8.9296875 7.14403443 8.9296875 10.359375 C1.9996875 10.359375 -4.9303125 10.359375 -12.0703125 10.359375 C-10.6052426 3.0340255 -7.54025276 -0.51216811 0 0 Z " fill="#2C2C30" transform="translate(1961.0703125,707.640625)"/>
<path d="M0 0 C2.85432986 0.5315756 4.69665618 1.52040803 6.9296875 3.359375 C8.66492678 6.00354914 8.9296875 7.14403443 8.9296875 10.359375 C1.9996875 10.359375 -4.9303125 10.359375 -12.0703125 10.359375 C-10.6052426 3.0340255 -7.54025276 -0.51216811 0 0 Z " fill="#2C2C30" transform="translate(1803.0703125,582.640625)"/>
<path d="M0 0 C2.9375 1.625 2.9375 1.625 5 4 C5.33 5.98 5.66 7.96 6 10 C-0.6 10 -7.2 10 -14 10 C-13 4 -13 4 -10.9375 1.625 C-7.13489707 -0.47856758 -4.2534768 -0.84210248 0 0 Z " fill="#1D2324" transform="translate(1404,583)"/>
<path d="M0 0 C3.4203866 1.17013226 3.91540482 1.87310723 6 5 C6 6.65 6 8.3 6 10 C-0.6 10 -7.2 10 -14 10 C-12.24440154 1.22200772 -8.36565265 -0.92951696 0 0 Z " fill="#2A2A2D" transform="translate(1179,708)"/>
<path d="M0 0 C2.9375 1.625 2.9375 1.625 5 4 C5.33 5.98 5.66 7.96 6 10 C-0.6 10 -7.2 10 -14 10 C-13 4 -13 4 -10.9375 1.625 C-7.13489707 -0.47856758 -4.2534768 -0.84210248 0 0 Z " fill="#29292D" transform="translate(1538,583)"/>
<path d="M0 0 C1.9375 1.1875 1.9375 1.1875 3 3 C3.5 5.9375 3.5 5.9375 3 9 C0.9375 11.4375 0.9375 11.4375 -2 13 C-5.83750808 13 -8.03539965 12.81388154 -11 10.3125 C-12.38906225 7.10029355 -12.05521374 5.3063364 -11 2 C-7.73738634 -1.89003936 -4.6433228 -1.18193671 0 0 Z " fill="#F3F3F3" transform="translate(1716,554)"/>
</svg>
